<svg xmlns="http://www.w3.org/2000/svg" viewBox="0 0 1080 1920" fill="none">
  <rect width="1080" height="1920" fill="#FEF9F4" opacity="0.95"/>
  <!-- Motif kawung pojok -->
  <g opacity="0.2" transform="translate(0,0)">
    <ellipse cx="80" cy="40" rx="35" ry="55" stroke="#6B3A2A" stroke-width="2"/>
    <ellipse cx="40" cy="80" rx="55" ry="35" stroke="#6B3A2A" stroke-width="2"/>
    <circle cx="80" cy="80" r="20" fill="#C4956A" fill-opacity="0.4"/>
    <ellipse cx="160" cy="40" rx="35" ry="55" stroke="#6B3A2A" stroke-width="2"/>
    <ellipse cx="40" cy="160" rx="55" ry="35" stroke="#6B3A2A" stroke-width="2"/>
    <ellipse cx="240" cy="40" rx="35" ry="55" stroke="#6B3A2A" stroke-width="2"/>
    <ellipse cx="40" cy="240" rx="55" ry="35" stroke="#6B3A2A" stroke-width="2"/>
  </g>
  <g opacity="0.2" transform="translate(1080,0) scale(-1,1)">
    <ellipse cx="80" cy="40" rx="35" ry="55" stroke="#6B3A2A" stroke-width="2"/>
    <ellipse cx="40" cy="80" rx="55" ry="35" stroke="#6B3A2A" stroke-width="2"/>
    <circle cx="80" cy="80" r="20" fill="#C4956A" fill-opacity="0.4"/>
    <ellipse cx="160" cy="40" rx="35" ry="55" stroke="#6B3A2A" stroke-width="2"/>
    <ellipse cx="40" cy="160" rx="55" ry="35" stroke="#6B3A2A" stroke-width="2"/>
  </g>
  <g opacity="0.2" transform="translate(0,1920) scale(1,-1)">
    <ellipse cx="80" cy="40" rx="35" ry="55" stroke="#6B3A2A" stroke-width="2"/>
    <ellipse cx="40" cy="80" rx="55" ry="35" stroke="#6B3A2A" stroke-width="2"/>
    <circle cx="80" cy="80" r="20" fill="#C4956A" fill-opacity="0.4"/>
    <ellipse cx="160" cy="40" rx="35" ry="55" stroke="#6B3A2A" stroke-width="2"/>
    <ellipse cx="40" cy="160" rx="55" ry="35" stroke="#6B3A2A" stroke-width="2"/>
  </g>
  <g opacity="0.2" transform="translate(1080,1920) scale(-1,-1)">
    <ellipse cx="80" cy="40" rx="35" ry="55" stroke="#6B3A2A" stroke-width="2"/>
    <ellipse cx="40" cy="80" rx="55" ry="35" stroke="#6B3A2A" stroke-width="2"/>
    <circle cx="80" cy="80" r="20" fill="#C4956A" fill-opacity="0.4"/>
  </g>
  <rect x="15" y="15" width="1050" height="1890" stroke="#6B3A2A" stroke-width="3" fill="none" opacity="0.3"/>
  <line x1="80" y1="340" x2="430" y2="340" stroke="#6B3A2A" stroke-width="2" opacity="0.4"/>
  <circle cx="540" cy="340" r="8" fill="#C4956A" opacity="0.6"/>
  <line x1="650" y1="340" x2="1000" y2="340" stroke="#6B3A2A" stroke-width="2" opacity="0.4"/>
  <text x="540" y="310" text-anchor="middle" font-family="Plus Jakarta Sans,sans-serif" font-size="34" fill="#6B3A2A" opacity="0.6">Turut mengucapkan selamat kepada</text>
  <line x1="80" y1="1490" x2="430" y2="1490" stroke="#6B3A2A" stroke-width="2" opacity="0.4"/>
  <circle cx="540" cy="1490" r="8" fill="#C4956A" opacity="0.6"/>
  <line x1="650" y1="1490" x2="1000" y2="1490" stroke="#6B3A2A" stroke-width="2" opacity="0.4"/>
  <text x="540" y="1885" text-anchor="middle" font-family="Plus Jakarta Sans,sans-serif" font-size="28" fill="#6B3A2A" opacity="0.25">invitara.id</text>
</svg>
