<svg xmlns="http://www.w3.org/2000/svg" viewBox="0 0 1080 1920" fill="none">
  <rect width="1080" height="1920" fill="#FEFBF3" opacity="0.95"/>
  <!-- Border ganda -->
  <rect x="20" y="20" width="1040" height="1880" stroke="#C9A96E" stroke-width="2" fill="none" opacity="0.4"/>
  <rect x="35" y="35" width="1010" height="1850" stroke="#C9A96E" stroke-width="1" fill="none" opacity="0.25"/>
  <!-- Ornamen sudut emas -->
  <g fill="none" stroke="#C9A96E" stroke-width="2" opacity="0.8">
    <path d="M20 20 L120 20 L120 25 L25 25 L25 120 L20 120 Z" fill="#C9A96E" fill-opacity="0.2"/>
    <circle cx="20" cy="20" r="8" fill="#C9A96E"/>
    <circle cx="120" cy="20" r="4" fill="#C9A96E"/>
    <circle cx="20" cy="120" r="4" fill="#C9A96E"/>
  </g>
  <g fill="none" stroke="#C9A96E" stroke-width="2" opacity="0.8" transform="translate(1080,0) scale(-1,1)">
    <path d="M20 20 L120 20 L120 25 L25 25 L25 120 L20 120 Z" fill="#C9A96E" fill-opacity="0.2"/>
    <circle cx="20" cy="20" r="8" fill="#C9A96E"/>
    <circle cx="120" cy="20" r="4" fill="#C9A96E"/>
    <circle cx="20" cy="120" r="4" fill="#C9A96E"/>
  </g>
  <g fill="none" stroke="#C9A96E" stroke-width="2" opacity="0.8" transform="translate(0,1920) scale(1,-1)">
    <path d="M20 20 L120 20 L120 25 L25 25 L25 120 L20 120 Z" fill="#C9A96E" fill-opacity="0.2"/>
    <circle cx="20" cy="20" r="8" fill="#C9A96E"/>
  </g>
  <g fill="none" stroke="#C9A96E" stroke-width="2" opacity="0.8" transform="translate(1080,1920) scale(-1,-1)">
    <path d="M20 20 L120 20 L120 25 L25 25 L25 120 L20 120 Z" fill="#C9A96E" fill-opacity="0.2"/>
    <circle cx="20" cy="20" r="8" fill="#C9A96E"/>
  </g>
  <!-- Divider atas -->
  <line x1="80" y1="330" x2="460" y2="330" stroke="#C9A96E" stroke-width="1.5" opacity="0.5"/>
  <path d="M510 320 L530 330 L510 340 L490 330 Z" fill="#C9A96E" opacity="0.7"/>
  <line x1="620" y1="330" x2="1000" y2="330" stroke="#C9A96E" stroke-width="1.5" opacity="0.5"/>
  <text x="540" y="305" text-anchor="middle" font-family="Plus Jakarta Sans,sans-serif" font-size="34" fill="#C9A96E" opacity="0.7">Turut mengucapkan selamat kepada</text>
  <!-- Divider bawah -->
  <line x1="80" y1="1490" x2="460" y2="1490" stroke="#C9A96E" stroke-width="1.5" opacity="0.5"/>
  <path d="M510 1480 L530 1490 L510 1500 L490 1490 Z" fill="#C9A96E" opacity="0.7"/>
  <line x1="620" y1="1490" x2="1000" y2="1490" stroke="#C9A96E" stroke-width="1.5" opacity="0.5"/>
  <text x="540" y="1880" text-anchor="middle" font-family="Plus Jakarta Sans,sans-serif" font-size="28" fill="#C9A96E" opacity="0.3">invitara.id</text>
</svg>
