<svg xmlns="http://www.w3.org/2000/svg" viewBox="0 0 1080 1920" fill="none">
  <rect width="1080" height="1920" fill="#F0FFF8" opacity="0.97"/>
  <rect x="20" y="20" width="1040" height="1880" stroke="#2D6A4F" stroke-width="2" fill="none" opacity="0.3"/>
  <!-- Arabesque sudut -->
  <g opacity="0.25" transform="translate(20,20)">
    <circle cx="0" cy="0" r="80" stroke="#2D6A4F" stroke-width="1.5" stroke-dasharray="10 5"/>
    <circle cx="0" cy="0" r="50" stroke="#2D6A4F" stroke-width="1"/>
    <path d="M0 0 L80 0 M0 0 L0 80 M0 0 L57 57" stroke="#2D6A4F" stroke-width="0.8" opacity="0.5"/>
  </g>
  <g opacity="0.25" transform="translate(1060,20) scale(-1,1)">
    <circle cx="0" cy="0" r="80" stroke="#2D6A4F" stroke-width="1.5" stroke-dasharray="10 5"/>
    <circle cx="0" cy="0" r="50" stroke="#2D6A4F" stroke-width="1"/>
    <path d="M0 0 L80 0 M0 0 L0 80 M0 0 L57 57" stroke="#2D6A4F" stroke-width="0.8" opacity="0.5"/>
  </g>
  <g opacity="0.25" transform="translate(20,1900) scale(1,-1)">
    <circle cx="0" cy="0" r="80" stroke="#2D6A4F" stroke-width="1.5" stroke-dasharray="10 5"/>
    <circle cx="0" cy="0" r="50" stroke="#2D6A4F" stroke-width="1"/>
  </g>
  <g opacity="0.25" transform="translate(1060,1900) scale(-1,-1)">
    <circle cx="0" cy="0" r="80" stroke="#2D6A4F" stroke-width="1.5" stroke-dasharray="10 5"/>
    <circle cx="0" cy="0" r="50" stroke="#2D6A4F" stroke-width="1"/>
  </g>
  <!-- Bulan bintang kecil -->
  <text x="540" y="200" text-anchor="middle" font-size="80" fill="#2D6A4F" opacity="0.15">☪</text>
  <!-- Divider -->
  <line x1="80" y1="330" x2="450" y2="330" stroke="#2D6A4F" stroke-width="1.5" opacity="0.4"/>
  <text x="540" y="342" text-anchor="middle" font-size="28" fill="#2D6A4F" opacity="0.5">✦</text>
  <line x1="630" y1="330" x2="1000" y2="330" stroke="#2D6A4F" stroke-width="1.5" opacity="0.4"/>
  <text x="540" y="308" text-anchor="middle" font-family="Plus Jakarta Sans,sans-serif" font-size="34" fill="#2D6A4F" opacity="0.6">Turut mengucapkan selamat kepada</text>
  <!-- Bottom -->
  <line x1="80" y1="1490" x2="450" y2="1490" stroke="#2D6A4F" stroke-width="1.5" opacity="0.4"/>
  <text x="540" y="1502" text-anchor="middle" font-size="28" fill="#2D6A4F" opacity="0.5">✦</text>
  <line x1="630" y1="1490" x2="1000" y2="1490" stroke="#2D6A4F" stroke-width="1.5" opacity="0.4"/>
  <text x="540" y="1885" text-anchor="middle" font-family="Plus Jakarta Sans,sans-serif" font-size="28" fill="#2D6A4F" opacity="0.25">invitara.id</text>
</svg>
